<svg xmlns="http://www.w3.org/2000/svg" viewBox="0 0 512 512" role="img" aria-labelledby="title desc">
  <title id="title">DI-ASH Dragon AI Icon</title>
  <desc id="desc">Professional minimalist dragon icon for AI chat assistance.</desc>
  <!-- Dragon base path derived from Kali Linux icon in Simple Icons (CC0 1.0). -->
  <defs>
    <linearGradient id="fill" x1="8%" y1="0%" x2="94%" y2="100%">
      <stop offset="0%" stop-color="#27de8c" stop-opacity="0.94"/>
      <stop offset="46%" stop-color="#12ce79" stop-opacity="0.82"/>
      <stop offset="100%" stop-color="#0a9355" stop-opacity="0.64"/>
    </linearGradient>
    <pattern id="dragonDots" patternUnits="userSpaceOnUse" width="0.95" height="0.95">
      <circle cx="0.32" cy="0.32" r="0.23" fill="#93ffcb" fill-opacity="1"/>
      <circle cx="0.76" cy="0.76" r="0.14" fill="#37e78f" fill-opacity="0.98"/>
    </pattern>
    <linearGradient id="outline" x1="0%" y1="0%" x2="100%" y2="100%">
      <stop offset="0%" stop-color="#c4ffe3"/>
      <stop offset="44%" stop-color="#77f6b3"/>
      <stop offset="100%" stop-color="#15bc70"/>
    </linearGradient>
    <filter id="softGlow" x="-42%" y="-42%" width="184%" height="184%">
      <feGaussianBlur stdDeviation="5.4" result="blur"/>
      <feColorMatrix in="blur" type="matrix" values="0.20 0 0 0 0  0 1.08 0 0 0  0 0 0.26 0 0  0 0 0 1 0"/>
    </filter>
    <filter id="dotGlow" x="-40%" y="-40%" width="180%" height="180%">
      <feGaussianBlur stdDeviation="0.46" result="b"/>
      <feColorMatrix in="b" type="matrix" values="0.22 0 0 0 0  0 1.40 0 0 0  0 0 0.30 0 0  0 0 0 1 0"/>
    </filter>
  </defs>

  <g transform="translate(118 126) scale(12.0)">
    <path d="M12.778 5.943s-1.97-.13-5.327.92c-3.42 1.07-5.36 2.587-5.36 2.587s5.098-2.847 10.852-3.008zm7.351 3.095l.257-.017s-1.468-1.78-4.278-2.648c1.58.642 2.954 1.493 4.021 2.665zm.42.74c.039-.068.166.217.263.337.004.024.01.039-.045.027-.005-.025-.013-.032-.013-.032s-.135-.08-.177-.137c-.041-.057-.049-.157-.028-.195zm3.448 8.479s.312-3.578-5.31-4.403a18.277 18.277 0 0 0-2.524-.187c-4.506.06-4.67-5.197-1.275-5.462 1.407-.116 3.087.643 4.73 1.408-.007.204.002.385.136.552.134.168.648.35.813.445.164.094.691.43 1.014.85.07-.131.654-.512.654-.512s-.14.003-.465-.119c-.326-.122-.713-.49-.722-.511-.01-.022-.015-.055.06-.07.059-.049-.072-.207-.13-.265-.058-.058-.445-.716-.454-.73-.009-.016-.012-.031-.04-.05-.085-.027-.46.04-.46.04s-.575-.283-.774-.893c.003.107-.099.224 0 .469-.3-.127-.558-.344-.762-.88-.12.305 0 .499 0 .499s-.707-.198-.82-.85c-.124.293 0 .469 0 .469s-1.153-.602-3.069-.61c-1.283-.118-1.55-2.374-1.43-2.754 0 0-1.85-.975-5.493-1.406-3.642-.43-6.628-.065-6.628-.065s6.45-.31 11.617 1.783c.176.785.704 2.094.989 2.723-.815.563-1.733 1.092-1.876 2.97-.143 1.878 1.472 3.53 3.474 3.58 1.9.102 3.214.116 4.806.942 1.52.84 2.766 3.4 2.89 5.703.132-1.709-.509-5.383-3.5-6.498 4.181.732 4.549 3.832 4.549 3.832zM12.68 5.663l-.15-.485s-2.484-.441-5.822-.204C3.37 5.211 0 6.38 0 6.38s6.896-1.735 12.68-.717Z" fill="url(#fill)"/>
    <path d="M12.778 5.943s-1.97-.13-5.327.92c-3.42 1.07-5.36 2.587-5.36 2.587s5.098-2.847 10.852-3.008zm7.351 3.095l.257-.017s-1.468-1.78-4.278-2.648c1.58.642 2.954 1.493 4.021 2.665zm.42.74c.039-.068.166.217.263.337.004.024.01.039-.045.027-.005-.025-.013-.032-.013-.032s-.135-.08-.177-.137c-.041-.057-.049-.157-.028-.195zm3.448 8.479s.312-3.578-5.31-4.403a18.277 18.277 0 0 0-2.524-.187c-4.506.06-4.67-5.197-1.275-5.462 1.407-.116 3.087.643 4.73 1.408-.007.204.002.385.136.552.134.168.648.35.813.445.164.094.691.43 1.014.85.07-.131.654-.512.654-.512s-.14.003-.465-.119c-.326-.122-.713-.49-.722-.511-.01-.022-.015-.055.06-.07.059-.049-.072-.207-.13-.265-.058-.058-.445-.716-.454-.73-.009-.016-.012-.031-.04-.05-.085-.027-.46.04-.46.04s-.575-.283-.774-.893c.003.107-.099.224 0 .469-.3-.127-.558-.344-.762-.88-.12.305 0 .499 0 .499s-.707-.198-.82-.85c-.124.293 0 .469 0 .469s-1.153-.602-3.069-.61c-1.283-.118-1.55-2.374-1.43-2.754 0 0-1.85-.975-5.493-1.406-3.642-.43-6.628-.065-6.628-.065s6.45-.31 11.617 1.783c.176.785.704 2.094.989 2.723-.815.563-1.733 1.092-1.876 2.97-.143 1.878 1.472 3.53 3.474 3.58 1.9.102 3.214.116 4.806.942 1.52.84 2.766 3.4 2.89 5.703.132-1.709-.509-5.383-3.5-6.498 4.181.732 4.549 3.832 4.549 3.832zM12.68 5.663l-.15-.485s-2.484-.441-5.822-.204C3.37 5.211 0 6.38 0 6.38s6.896-1.735 12.68-.717Z" fill="url(#dragonDots)" opacity="0.97" filter="url(#dotGlow)"/>
    <path d="M12.778 5.943s-1.97-.13-5.327.92c-3.42 1.07-5.36 2.587-5.36 2.587s5.098-2.847 10.852-3.008zm7.351 3.095l.257-.017s-1.468-1.78-4.278-2.648c1.58.642 2.954 1.493 4.021 2.665zm.42.74c.039-.068.166.217.263.337.004.024.01.039-.045.027-.005-.025-.013-.032-.013-.032s-.135-.08-.177-.137c-.041-.057-.049-.157-.028-.195zm3.448 8.479s.312-3.578-5.31-4.403a18.277 18.277 0 0 0-2.524-.187c-4.506.06-4.67-5.197-1.275-5.462 1.407-.116 3.087.643 4.73 1.408-.007.204.002.385.136.552.134.168.648.35.813.445.164.094.691.43 1.014.85.07-.131.654-.512.654-.512s-.14.003-.465-.119c-.326-.122-.713-.49-.722-.511-.01-.022-.015-.055.06-.07.059-.049-.072-.207-.13-.265-.058-.058-.445-.716-.454-.73-.009-.016-.012-.031-.04-.05-.085-.027-.46.04-.46.04s-.575-.283-.774-.893c.003.107-.099.224 0 .469-.3-.127-.558-.344-.762-.88-.12.305 0 .499 0 .499s-.707-.198-.82-.85c-.124.293 0 .469 0 .469s-1.153-.602-3.069-.61c-1.283-.118-1.55-2.374-1.43-2.754 0 0-1.85-.975-5.493-1.406-3.642-.43-6.628-.065-6.628-.065s6.45-.31 11.617 1.783c.176.785.704 2.094.989 2.723-.815.563-1.733 1.092-1.876 2.97-.143 1.878 1.472 3.53 3.474 3.58 1.9.102 3.214.116 4.806.942 1.52.84 2.766 3.4 2.89 5.703.132-1.709-.509-5.383-3.5-6.498 4.181.732 4.549 3.832 4.549 3.832zM12.68 5.663l-.15-.485s-2.484-.441-5.822-.204C3.37 5.211 0 6.38 0 6.38s6.896-1.735 12.68-.717Z" fill="none" stroke="url(#outline)" stroke-width="0.13" stroke-linecap="round" stroke-linejoin="round" filter="url(#softGlow)"/>
  </g>
</svg>
